<svg width="242" height="269" viewBox="0 0 242 269" fill="none" xmlns="http://www.w3.org/2000/svg">
<g filter="url(#filter0_d_3_284)">
<path d="M230.3 52.0945C276.943 -72.5987 100.404 73.6466 4 14.1078V166.721C39.4007 160.279 181.384 182.864 230.3 52.0945Z" fill="url(#paint0_linear_3_284)"/>
</g>
<g opacity="0.4">
<path d="M143.85 103.999C144.174 104.225 144.625 104.391 145.14 104.476C145.655 104.56 146.208 104.557 146.72 104.468C147.232 104.378 147.677 104.207 147.992 103.978C148.308 103.749 148.478 103.474 148.478 103.192C148.478 102.888 148.278 102.611 147.954 102.386L147.963 102.384L142.822 99.1558L137.68 102.384L137.69 102.386C137.352 102.617 137.168 102.9 137.166 103.192C137.166 103.474 137.336 103.749 137.651 103.978C137.967 104.207 138.412 104.378 138.924 104.468C139.436 104.557 139.989 104.56 140.504 104.476C141.019 104.391 141.47 104.225 141.794 103.999L142.308 103.64V104.806C142.308 105.613 139.737 105.613 139.737 105.613C139.601 105.613 139.47 105.641 139.373 105.692C139.277 105.742 139.223 105.811 139.223 105.882C139.223 105.953 139.277 106.022 139.373 106.072C139.47 106.123 139.601 106.151 139.737 106.151H145.907C146.043 106.151 146.174 106.123 146.27 106.072C146.367 106.022 146.421 105.953 146.421 105.882C146.421 105.811 146.367 105.742 146.27 105.692C146.174 105.641 146.043 105.613 145.907 105.613C145.907 105.613 143.336 105.613 143.336 104.806V103.64L143.85 103.999Z" fill="white" fill-opacity="0.54"/>
</g>
<g opacity="0.4">
<path d="M105.446 63.3867C110.001 66.041 109.582 70.1176 104.509 72.5012C99.4371 74.8847 91.6465 74.6657 87.0915 72.0114C82.5365 69.3571 82.9552 65.2804 88.0276 62.8968C93.1 60.5133 100.891 60.7324 105.446 63.3867ZM91.1544 63.8407C93.1336 63.1235 95.5912 62.8519 97.9568 63.0888L98.6593 61.9701C97.1058 61.7865 95.4954 61.7781 93.9352 61.9456C92.375 62.113 90.9009 62.4525 89.611 62.9414L91.1544 63.8407ZM85.1274 68.3289L87.3282 68.0833C87.2313 67.4607 87.3722 66.8343 87.7426 66.2405C88.113 65.6467 88.7056 65.0975 89.4858 64.6247L87.9425 63.7254C86.8754 64.3441 86.0724 65.0747 85.587 65.8684C85.1016 66.6622 84.9449 67.5009 85.1274 68.3289ZM91.7399 73.0603L92.434 71.9455C91.3556 71.678 90.3896 71.3009 89.5922 70.8362C88.7948 70.3716 88.1819 69.8286 87.7891 69.2389L85.5967 69.4805C86.0701 70.2729 86.8638 71.0026 87.9237 71.6203C88.9837 72.238 90.2852 72.7291 91.7399 73.0603ZM101.383 71.5573C100.401 71.9126 99.2938 72.162 98.1259 72.2911C96.958 72.4202 95.7527 72.4263 94.5802 72.3092L93.8778 73.4279C95.4313 73.6116 97.0417 73.6199 98.6019 73.4525C100.162 73.285 101.636 72.9455 102.926 72.4567L101.383 71.5573ZM107.41 67.0692L105.209 67.3147C105.306 67.9373 105.165 68.5637 104.794 69.1575C104.424 69.7513 103.831 70.3006 103.051 70.7733L104.55 71.6464C106.71 70.4025 107.755 68.7367 107.41 67.0692ZM106.94 65.9175C105.985 64.3159 103.738 63.0062 100.797 62.3377L100.103 63.4525C101.181 63.72 102.147 64.0971 102.945 64.5618C103.742 65.0264 104.355 65.5694 104.748 66.1592L106.94 65.9175ZM98.7714 66.5229L92.5227 65.5162L93.7657 68.8751L100.014 69.8818L98.7714 66.5229Z" fill="#ABABAB" fill-opacity="0.43"/>
</g>
<path d="M93.7117 254.077C98.2667 256.732 97.848 260.808 92.7756 263.192C87.7033 265.575 79.9127 265.356 75.3577 262.702C70.8027 260.048 71.2214 255.971 76.2938 253.588C81.3662 251.204 89.1567 251.423 93.7117 254.077ZM79.4205 254.531C81.3998 253.814 83.8574 253.543 86.223 253.78L86.9255 252.661C85.372 252.477 83.7615 252.469 82.2014 252.636C80.6412 252.804 79.1671 253.143 77.8772 253.632L79.4205 254.531ZM73.3936 259.02L75.5944 258.774C75.4975 258.151 75.6384 257.525 76.0088 256.931C76.3792 256.337 76.9718 255.788 77.752 255.315L76.2087 254.416C75.1416 255.035 74.3386 255.765 73.8532 256.559C73.3678 257.353 73.2111 258.192 73.3936 259.02ZM80.0061 263.751L80.7002 262.636C79.6218 262.369 78.6558 261.992 77.8584 261.527C77.061 261.062 76.4481 260.519 76.0553 259.93L73.8629 260.171C74.3363 260.964 75.13 261.693 76.1899 262.311C77.2499 262.929 78.5514 263.42 80.0061 263.751ZM89.6489 262.248C88.6671 262.603 87.56 262.853 86.3921 262.982C85.2242 263.111 84.0189 263.117 82.8464 263L82.1439 264.119C83.6974 264.302 85.3079 264.311 86.8681 264.143C88.4282 263.976 89.9023 263.636 91.1922 263.147L89.6489 262.248ZM95.6759 257.76L93.4751 258.005C93.5719 258.628 93.4311 259.254 93.0606 259.848C92.6902 260.442 92.0976 260.991 91.3174 261.464L92.8158 262.337C94.9762 261.093 96.0207 259.427 95.6759 257.76ZM95.2066 256.608C94.2515 255.007 92.004 253.697 89.0633 253.028L88.3692 254.143C89.4476 254.411 90.4136 254.788 91.211 255.253C92.0084 255.717 92.6213 256.26 93.0141 256.85L95.2066 256.608ZM87.0375 257.214L80.7888 256.207L82.0319 259.566L88.2806 260.573L87.0375 257.214Z" fill="#C0C0C0"/>
<defs>
<filter id="filter0_d_3_284" x="0" y="0" width="242" height="174.721" filterUnits="userSpaceOnUse" color-interpolation-filters="sRGB">
<feFlood flood-opacity="0" result="BackgroundImageFix"/>
<feColorMatrix in="SourceAlpha" type="matrix" values="0 0 0 0 0 0 0 0 0 0 0 0 0 0 0 0 0 0 127 0" result="hardAlpha"/>
<feOffset dy="4"/>
<feGaussianBlur stdDeviation="2"/>
<feComposite in2="hardAlpha" operator="out"/>
<feColorMatrix type="matrix" values="0 0 0 0 0 0 0 0 0 0 0 0 0 0 0 0 0 0 0.25 0"/>
<feBlend mode="normal" in2="BackgroundImageFix" result="effect1_dropShadow_3_284"/>
<feBlend mode="normal" in="SourceGraphic" in2="effect1_dropShadow_3_284" result="shape"/>
</filter>
<linearGradient id="paint0_linear_3_284" x1="237.941" y1="119.605" x2="105.213" y2="-181.391" gradientUnits="userSpaceOnUse">
<stop stop-color="#3700AD"/>
<stop offset="0.752599"/>
</linearGradient>
</defs>
</svg>
